<svg xmlns="http://www.w3.org/2000/svg" width="148.66701" height="50.778999" viewBox="0 0 148.66701 50.779002"><path d="M64.315 13.41h9.688l-5.119-8.26-9.397 14.92h-4.292L66.636 2.166C67.124 1.437 67.963 1 68.876 1c.915 0 1.722.425 2.21 1.133l11.477 17.938h-4.28l-2.019-3.334h-9.812l-2.137-3.322zm44.456 3.323V1.183h-3.64v17.084c0 .465.195.92.536 1.252.345.357.823.556 1.323.556h16.548l2.157-3.334h-16.928Zm-60.085-2.782a6.38 6.38 0 0 0 6.382-6.39 6.37 6.37 0 0 0-6.382-6.378H32.795V20.07h3.632V4.52h12.016a3.05 3.05 0 0 1 3.052 3.048c0 1.686-1.367 3.068-3.052 3.068l-10.244-.008 10.848 9.446h5.27l-7.289-6.116h1.654zm-38.237 6.116h10.98c5.222 0 9.43-4.22 9.43-9.438s-4.208-9.446-9.43-9.446H10.45A9.45 9.45 0 0 0 1 10.633c0 5.222 4.232 9.438 9.45 9.438zm10.73-3.322H10.692a6.113 6.113 0 0 1 0-12.224h10.487c3.385 0 6.12 2.73 6.12 6.112a6.106 6.106 0 0 1-6.12 6.112m68.97 3.322h11.21l2.123-3.322H90.399a6.117 6.117 0 0 1-6.124-6.112c0-3.37 2.73-6.112 6.124-6.112h10.65l2.146-3.338H90.148c-5.221 0-9.461 4.228-9.461 9.454s4.24 9.438 9.461 9.438zm44.42-3.322a6.12 6.12 0 0 1-5.886-4.448h15.523l2.137-3.33h-17.66a6.11 6.11 0 0 1 5.885-4.446h10.659l2.13-3.338h-13.031c-5.21 0-9.442 4.228-9.442 9.454a9.43 9.43 0 0 0 9.442 9.438h11.21l2.131-3.322h-13.099z" style="fill:#c74634;fill-opacity:1;fill-rule:nonzero;stroke:none;stroke-width:1.33333"/><path d="M78.594 28.582V48.8q.972.448 2.474.713 1.501.266 2.866.265 3.535.001 5.507-2.043c1.316-1.366 1.975-3.27 1.975-5.662q-.001-3.589-1.559-5.51-1.555-1.918-4.449-1.918-2.473 0-4.31 1.836v-7.9zM2.82 29.25v20.223h6.063q4.893-.002 7.385-2.547c1.656-1.694 2.486-4.214 2.486-7.551q.002-5.008-2.486-7.567-2.489-2.557-7.385-2.558zm44.229 1.697-1.002 3.95-2.504.835v1.28h2.504v8.043q.002 2.335 1.017 3.449 1.014 1.112 3.155 1.111.447.001.851-.025.402-.03.79-.114v-2.17q-.275.025-.596.069-.323.04-.657.039-2.055-.002-2.056-2.393v-8.01h3.142v-2.058h-3.142v-4.006zm-41.643.5h3.422q7.288 0 7.287 7.928-.001 4.005-1.808 5.953-1.806 1.949-5.479 1.947H5.406zm26.348 3.195c-.799 0-1.65.093-2.56.268q-1.365.269-2.42.738v2.03q1.5-.524 2.699-.762a12 12 0 0 1 2.252-.235q1.645.002 2.324.641.68.64.68 2.197v.918H31.39q-2.806 0-4.38 1.262-1.573 1.264-1.572 3.547-.001 2.054 1.319 3.293 1.318 1.24 3.517 1.24 3.058-.001 4.84-2.642l.416 2.336.006-.004h1.697v-9.96q-.001-4.868-5.48-4.867m33.101 0c-.798 0-1.65.093-2.56.268q-1.364.269-2.42.738v2.03q1.5-.524 2.7-.762 1.198-.234 2.253-.235 1.645.002 2.324.641.68.64.68 2.197v.918h-3.34q-2.803 0-4.377 1.262-1.575 1.264-1.574 3.547-.002 2.054 1.318 3.293 1.319 1.24 3.518 1.24 3.058-.001 4.84-2.642l.418 2.336.004-.004h1.697v-9.96q-.002-4.868-5.48-4.867m39.416 0c-.798 0-1.647.093-2.558.268q-1.364.269-2.42.738v2.03q1.5-.524 2.697-.762 1.198-.234 2.254-.235 1.645.002 2.324.641.68.64.68 2.197v.918h-3.338q-2.805 0-4.379 1.262-1.574 1.264-1.574 3.547-.002 2.054 1.318 3.293 1.319 1.24 3.518 1.24 3.058-.001 4.84-2.642l.418 2.336.004-.004h1.697v-9.96q-.001-4.868-5.48-4.867m18.301 0c-1.689 0-3.028.371-4.021 1.102q-1.486 1.099-1.488 2.986 0 1.507.92 2.465c.611.64 1.585 1.15 2.92 1.52l2.28.611c.891.243 1.51.523 1.864.85q.53.482.53 1.347 0 2.17-3.618 2.17a10 10 0 0 1-2.27-.252q-1.067-.25-2.375-.806v2.115l.004-.004q.889.47 2.17.75a12.2 12.2 0 0 0 2.614.28q2.81 0 4.396-1.169 1.585-1.166 1.586-3.199 0-1.668-.945-2.654c-.632-.656-1.65-1.174-3.06-1.543l-2.31-.612q-1.225-.337-1.714-.794c-.326-.31-.487-.72-.487-1.24q0-1.837 3.17-1.837 2.2 0 4.34.864v-2.114a8.5 8.5 0 0 0-1.974-.613 13.3 13.3 0 0 0-2.532-.223m18.389.004q-3.146 0-4.828 1.891c-1.12 1.26-1.68 3.013-1.68 5.537q.001 3.784 1.766 5.746 1.764 1.96 5.213 1.96 1.53 0 2.824-.28c.863-.187 1.55-.437 2.07-.75h.006v-2.115q-1.168.53-2.283.78-1.113.25-2.363.249-2.254.002-3.393-1.123c-.76-.755-1.196-1.944-1.308-3.576h10.042V41.35q0-6.705-6.066-6.705zm-56.025 2.002v.006q1.941-.001 2.931 1.373.99 1.383.99 4.022 0 5.676-4.978 5.675-.834-.001-1.531-.1a9 9 0 0 1-1.25-.265V38.57a5.9 5.9 0 0 1 1.818-1.42q1.018-.502 2.02-.502m56.023.053q1.949 0 2.797 1.002.851 1 .85 3.281h-7.622c.072-1.39.45-2.45 1.125-3.181q1.013-1.097 2.85-1.098zM31.637 42.269h3.117v2.754c-.445.855-1.039 1.525-1.781 2.018-.744.49-1.538.734-2.393.734v-.004q-1.22 0-1.93-.734-.71-.735-.712-1.986c0-.947.298-1.65.902-2.104q.907-.679 2.797-.678m33.103 0h3.115v2.754c-.445.855-1.036 1.525-1.779 2.018q-1.115.735-2.394.734v-.004q-1.221 0-1.93-.734-.711-.735-.713-1.986-.001-1.422.904-2.104.906-.679 2.797-.678m39.416 0h3.115v2.754c-.445.855-1.036 1.525-1.779 2.018-.744.49-1.538.734-2.392.734v-.004q-1.223 0-1.932-.734-.71-.735-.711-1.986-.002-1.422.902-2.104.907-.679 2.797-.678" style="fill:#312d2a;fill-opacity:1;fill-rule:nonzero;stroke:none;stroke-width:1.33333"/></svg>